# xmcd
#
# Track frame offsets: 
#        150
#        25709
#        53704
#        79816
#        97568
#        118007
#        140273
#        158969
#        176954
#        199123
#        226918
#        246355
#
# Disc length: 3617 seconds
#
# Revision: 1
# Processed by: cddbd v1.5.2PL0 Copyright (c) Steve Scherf et al.
# Submitted via: ExactAudioCopy v1.1
#
DISCID=940e1f0c
DTITLE=Morgan James - Live from Dizzy's Club Coca-Cola
DYEAR=2012
DGENRE=Blues
TTITLE0=I Put a Spell on You
TTITLE1=Little Girl Blue
TTITLE2=Don't Explain
TTITLE3=Be My Husband
TTITLE4=Don't Let Me Be Misunderstood
TTITLE5=My Man's Gone Now
TTITLE6=Funkier Than a Mosquita's Tweeter
TTITLE7=My Baby Just Cares For Me
TTITLE8=Tell Me More and More and Then Some
TTITLE9=Save Me
TTITLE10=Trouble in Mind
TTITLE11=Nobody Knows You When You're Down and Out
EXTD=
EXTT0=
EXTT1=
EXTT2=
EXTT3=
EXTT4=
EXTT5=
EXTT6=
EXTT7=
EXTT8=
EXTT9=
EXTT10=
EXTT11=
PLAYORDER=
